<?xml version="1.0" encoding="UTF-8" standalone="no"?>
<!-- Created with Inkscape (http://www.inkscape.org/) -->

<svg
   xmlns:dc="http://purl.org/dc/elements/1.1/"
   xmlns:cc="http://creativecommons.org/ns#"
   xmlns:rdf="http://www.w3.org/1999/02/22-rdf-syntax-ns#"
   xmlns:svg="http://www.w3.org/2000/svg"
   xmlns="http://www.w3.org/2000/svg"
   xmlns:sodipodi="http://sodipodi.sourceforge.net/DTD/sodipodi-0.dtd"
   xmlns:inkscape="http://www.inkscape.org/namespaces/inkscape"
   width="210mm"
   height="297mm"
   viewBox="0 0 210 297"
   version="1.1"
   id="svg8"
   inkscape:version="0.92.4 (5da689c313, 2019-01-14)"
   sodipodi:docname="Posible LOGO.svg">
  <defs
     id="defs2" />
  <sodipodi:namedview
     id="base"
     pagecolor="#ffffff"
     bordercolor="#666666"
     borderopacity="1.0"
     inkscape:pageopacity="0.0"
     inkscape:pageshadow="2"
     inkscape:zoom="0.83972969"
     inkscape:cx="142.75258"
     inkscape:cy="429.95538"
     inkscape:document-units="mm"
     inkscape:current-layer="g772"
     showgrid="false"
     showguides="false"
     inkscape:window-width="1366"
     inkscape:window-height="745"
     inkscape:window-x="-8"
     inkscape:window-y="-8"
     inkscape:window-maximized="1" />
  <metadata
     id="metadata5">
    <rdf:RDF>
      <cc:Work
         rdf:about="">
        <dc:format>image/svg+xml</dc:format>
        <dc:type
           rdf:resource="http://purl.org/dc/dcmitype/StillImage" />
        <dc:title />
      </cc:Work>
    </rdf:RDF>
  </metadata>
  <g
     inkscape:label="Kokopelli"
     inkscape:groupmode="layer"
     id="layer1"
     style="display:none"
     sodipodi:insensitive="true">
    <ellipse
       style="fill:#000000;stroke-width:0.26458332"
       id="path15"
       cx="74.528671"
       cy="126.59261"
       rx="22.921824"
       ry="23.183786" />
    <path
       style="fill:none;stroke:#000000;stroke-width:0.26458332px;stroke-linecap:butt;stroke-linejoin:miter;stroke-opacity:1"
       d="M 85.400164,108.91007 C 119.89423,88.472549 134.47574,93.45786 159.27393,92.406352"
       id="path19"
       inkscape:connector-curvature="0"
       sodipodi:nodetypes="cc" />
    <path
       style="fill:none;stroke:#000000;stroke-width:0.26458332px;stroke-linecap:butt;stroke-linejoin:miter;stroke-opacity:1"
       d="m 89.591583,112.05363 5.239273,5.7632 C 111.75432,98.630276 129.04784,98.420399 152.9868,99.217407 l 6.28713,-6.811057 v 0"
       id="path21"
       inkscape:connector-curvature="0"
       sodipodi:nodetypes="ccccc" />
    <path
       style="fill:none;stroke:#000000;stroke-width:0.26458332px;stroke-linecap:butt;stroke-linejoin:miter;stroke-opacity:1"
       d="m 94.830854,117.81683 c 23.250926,-12.8414 42.615166,-12.34314 60.775576,-8.6448 l -6.81105,7.33499 c -20.52664,-5.95508 -33.30165,-5.08915 -53.178632,7.59694 z"
       id="path23"
       inkscape:connector-curvature="0"
       sodipodi:nodetypes="ccccc" />
    <path
       style="fill:none;stroke:#000000;stroke-width:0.26458332px;stroke-linecap:butt;stroke-linejoin:miter;stroke-opacity:1"
       d="m 95.616746,124.10396 c 32.949524,-12.7291 33.937524,-5.91492 43.224014,-1e-5 l -7.59695,2.61965 c -12.34397,-7.41608 -10.05027,-6.90221 -36.15099,3.92945 l 0.523926,-6.54909"
       id="path25"
       inkscape:connector-curvature="0"
       sodipodi:nodetypes="ccccc" />
    <path
       style="fill:none;stroke:#000000;stroke-width:0.26458332px;stroke-linecap:butt;stroke-linejoin:miter;stroke-opacity:1"
       d="m 50.820956,168.89975 c 12.836221,-4.71535 20.695132,-0.26196 20.695132,-0.26196 l 19.90924,18.59942 9.430692,-31.17368 -9.168728,-13.09818 5.506477,-5.24976 13.092941,15.20438 17.02765,65.22895 -2.81364,7.69041 -28.883979,15.36239 -24.33642,30.18871 -14.942409,-14.44468 6.281888,-3.41601 8.110396,7.33499 21.22954,-24.38882 28.281604,-17.80306 -15.71783,-51.08292 -6.025161,23.05281 c 0,0 -3.622679,10.91297 -14.669968,2.09571 v 0 l -13.622112,-17.2896 c 0,0 -4.370522,-3.61211 -16.503712,-1.30983 z"
       id="path227"
       inkscape:connector-curvature="0"
       sodipodi:nodetypes="ccccccccccccccccccccccc" />
    <path
       style="fill:none;stroke:#000000;stroke-width:0.26458332px;stroke-linecap:butt;stroke-linejoin:miter;stroke-opacity:1"
       d="m 63.395214,155.80157 2.619637,-4.45339 1.309819,4.45339 3.143562,0.52392 v 2.61964 l -1.571781,1.04785 -4.0696,6.47895 -15.315713,51.41503 -8.120875,4.45338 v -9.43069 l 19.203255,-46.43772 z"
       id="path231"
       inkscape:connector-curvature="0"
       sodipodi:nodetypes="cccccccccccc" />
    <path
       style="fill:none;stroke:#000000;stroke-width:0.26458332px;stroke-linecap:butt;stroke-linejoin:miter;stroke-opacity:1"
       d="m 91.687292,142.96535 9.168728,13.09818 v 0 l 0.52393,19.90924 c 2.73269,6.46362 10.33066,26.54863 10.33066,26.54863 1.12071,5.29081 1.72952,7.32507 2.76753,11.4361 l -33.793321,14.40801 2.095709,30.91172 H 70.730196 l -7.073018,0.52392 2.357673,6.81106 10.740511,-0.26197 11.526404,-0.78589 -0.523928,-32.48349 28.816002,-5.76321 7.92688,-1.47832"
       id="path233"
       inkscape:connector-curvature="0"
       sodipodi:nodetypes="ccccsccccccccccc" />
    <path
       style="fill:#552200;stroke-width:0.99009901"
       d="m 358.00989,436.01921 c -4.05465,-7.74258 -12.55363,-18.36827 -19.22377,-24.03414 l -5.9911,-5.08908 9.04096,-4.97961 c 35.22924,-19.40369 70.08258,-33.85601 99.18598,-41.12858 31.10702,-7.77324 40.29934,-8.62283 102.92429,-9.51267 29.9505,-0.42557 54.60148,-0.64886 54.77996,-0.4962 0.17849,0.15267 -4.45004,5.43769 -10.28561,11.74449 l -10.61012,11.46692 -26.34806,-0.60761 c -39.70681,-0.91568 -67.4765,1.37198 -93.17973,7.67614 -33.89936,8.31441 -62.26107,24.67452 -88.82309,51.23654 l -8.80748,8.80748 z"
       id="path313"
       inkscape:connector-curvature="0"
       transform="scale(0.26458333)" />
    <path
       style="fill:#552200;stroke-width:0.99009901"
       d="m 367.21358,462.34181 c 0,-1.68004 -2.92646,-12.21329 -4.61772,-16.62065 -0.65394,-1.70414 19.95211,-12.08757 38.77613,-19.53936 30.91354,-12.23763 57.9788,-18.2923 92.12008,-20.60786 24.53202,-1.66383 55.25227,0.59938 85.927,6.33038 l 6.75995,1.26297 -12.12936,13.1322 c -8.62087,9.33363 -12.58097,12.95819 -13.69065,12.53063 -0.8587,-0.33086 -7.57612,-2.11151 -14.92761,-3.957 -57.24519,-14.37061 -98.07972,-11.25599 -144.51567,11.02281 -11.80921,5.66576 -24.9295,12.74877 -31.47443,16.99153 -2.05029,1.3291 -2.22772,1.28564 -2.22772,-0.54565 z"
       id="path315"
       inkscape:connector-curvature="0"
       transform="scale(0.26458333)" />
    <path
       style="fill:#000000;stroke-width:0.99009901"
       d="m 358.32044,435.71545 c -3.55977,-6.71024 -10.82616,-15.88183 -18.04662,-22.77835 l -6.40458,-6.11723 10.9791,-5.91295 c 44.39934,-23.91189 83.55488,-38.53079 119.72688,-44.70056 16.39705,-2.79681 35.76909,-3.80556 88.28192,-4.59707 l 45.54456,-0.68648 -9.14619,9.92448 c -5.0304,5.45846 -9.70861,10.38388 -10.39604,10.94536 -0.7896,0.64495 -16.01593,1.2013 -41.34886,1.51083 -29.6917,0.36278 -43.05417,0.91231 -51.48515,2.11731 -49.0951,7.01696 -81.8851,22.69765 -115.37828,55.17571 l -9.93274,9.63169 z"
       id="path317"
       inkscape:connector-curvature="0"
       transform="scale(0.26458333)" />
    <path
       style="fill:#000000;stroke-width:0.99009901"
       d="m 365.88625,455.44048 c -0.99241,-4.2203 -2.01953,-8.20489 -2.28249,-8.85465 -0.71319,-1.7623 5.75025,-5.63126 21.11043,-12.63651 58.57431,-26.71373 114.30258,-34.00086 181.31214,-23.70872 8.87671,1.3634 16.78586,2.72694 17.57589,3.03011 1.01371,0.38899 -1.67618,3.88854 -9.14053,11.89189 -5.81733,6.23738 -11.36632,11.76315 -12.3311,12.27948 -1.20723,0.64609 -4.00682,0.32295 -8.97915,-1.03641 -26.61768,-7.27686 -47.07542,-10.27608 -70.09628,-10.27653 -18.92609,-3.6e-4 -28.09187,1.10328 -45.0495,5.42435 -16.22323,4.13394 -41.89792,15.21784 -61.28069,26.4552 -4.84299,2.80778 -8.85694,5.10505 -8.91989,5.10505 -0.063,0 -0.92642,-3.45297 -1.91883,-7.67326 z"
       id="path319"
       inkscape:connector-curvature="0"
       transform="scale(0.26458333)" />
    <path
       style="fill:#000000;stroke-width:0.99009901"
       d="m 368.4415,478.07745 -0.0294,-10.88817 4.59878,-1.60575 c 49.65789,-17.33896 70.17538,-22.4074 91.23245,-22.53716 17.85793,-0.11005 27.27441,3.40451 46.74229,17.44583 l 11.59378,8.36208 -13.07893,4.46424 -13.07892,4.46425 -11.91895,-6.85488 c -29.27699,-16.83791 -34.2761,-16.3625 -94.51669,8.98854 -10.61882,4.46871 -19.80373,8.33289 -20.41092,8.58706 -0.77202,0.32316 -1.11285,-2.81199 -1.13344,-10.42604 z"
       id="path321"
       inkscape:connector-curvature="0"
       transform="scale(0.26458333)" />
    <path
       style="fill:#000000;stroke-width:0.99009901"
       d="m 392.4611,866.83677 c 1.08911,-0.79264 15.34654,-9.8157 31.68317,-20.05122 16.33664,-10.23554 30.08274,-18.94803 30.5469,-19.3611 0.81954,-0.72933 -58.68777,-195.99403 -59.72946,-195.99372 -0.28623,9e-5 -2.51296,7.79712 -4.9483,17.32674 -2.43535,9.52961 -4.71996,17.32657 -5.07693,17.32657 -0.35697,0 -0.93167,-10.13614 -1.27712,-22.52475 -0.34546,-12.38861 -0.89894,-29.7507 -1.22998,-38.58241 L 381.8275,588.91922 365.1146,565.0692 c -9.1921,-13.11751 -16.7129,-24.20015 -16.7129,-24.62808 0,-0.42793 4.26578,-4.70122 9.47951,-9.4962 9.22537,-8.48442 9.5266,-8.66776 11.23618,-6.83901 5.60435,5.99501 45.58724,52.94029 46.40233,54.48256 0.53833,1.01861 15.30494,56.75688 32.81469,123.86283 l 31.83591,122.01082 -5.24075,14.36809 c -3.89136,10.6686 -5.66732,14.36995 -6.89749,14.37532 -1.3218,0.006 -65.31567,12.39093 -75.07593,14.52996 -2.38693,0.52311 -2.4046,0.49104 -0.49505,-0.89872 z"
       id="path323"
       inkscape:connector-curvature="0"
       transform="scale(0.26458333)" />
    <path
       style="fill:#000000;stroke-width:0.99009901"
       d="m 335.65871,738.35735 c -12.8198,-4.61145 -15.05645,-6.81991 -43.67569,-43.12515 -21.4835,-27.25311 -27.31203,-34.05005 -30.37958,-35.42715 -5.00232,-2.24566 -13.9396,-4.58182 -17.65719,-4.61551 -5.28903,-0.0479 -5.39846,-0.68916 -2.05991,-12.07082 1.70833,-5.82399 3.31622,-10.79697 3.57309,-11.05105 0.72864,-0.72076 10.72486,1.23186 17.37192,3.39336 5.59813,1.8204 7.86263,3.68207 32.76069,26.93286 14.71079,13.7375 31.9751,29.85213 38.36513,35.81029 7.13424,6.65205 11.87705,10.4034 12.28881,9.71987 0.36882,-0.61223 8.01104,-25.45791 16.98273,-55.21263 11.26759,-37.36913 16.50118,-53.38808 16.92338,-51.79908 0.33618,1.26523 0.92445,16.1123 1.30727,32.99348 0.38281,16.88119 1.14781,32.25248 1.69998,34.15842 0.86722,2.99336 0.12178,6.814 -5.47299,28.05129 -3.81267,14.47256 -7.59052,26.63194 -9.18407,29.55981 -6.9672,12.80104 -19.28747,17.55832 -32.84357,12.68201 z"
       id="path325"
       inkscape:connector-curvature="0"
       transform="scale(0.26458333)" />
    <path
       style="fill:#000000;stroke-width:0.99009901"
       d="m 220.05141,653.63217 c 0.38849,-1.04751 2.58218,-6.4675 4.87486,-12.04443 l 4.1685,-10.13987 7.14714,-0.009 c 5.27843,-0.006 7.04034,0.31494 6.73865,1.22898 -0.22467,0.68069 -1.78922,5.80445 -3.47679,11.38613 l -3.0683,10.14852 h -6.80719 c -3.74396,0 -7.58931,0.30013 -8.54522,0.66694 -1.40038,0.53738 -1.6008,0.29696 -1.03165,-1.23762 z"
       id="path327"
       inkscape:connector-curvature="0"
       transform="scale(0.26458333)" />
    <path
       style="fill:#000000;stroke-width:0.99009901"
       d="m 198.57299,648.17449 c -2.62857,-4.95038 -4.62394,-9.15595 -4.43417,-9.34572 1.72321,-1.72322 31.044,-8.17482 32.14565,-7.07318 0.21169,0.21169 -1.70526,5.5322 -4.25989,11.82336 l -4.64479,11.43847 -4.53855,0.62032 c -2.4962,0.34117 -5.65241,0.82666 -7.0138,1.07887 -2.24564,0.41602 -2.91858,-0.37637 -7.25445,-8.54212 z"
       id="path329"
       inkscape:connector-curvature="0"
       transform="scale(0.26458333)" />
    <path
       style="fill:#000000;stroke-width:0.99009901"
       d=""
       id="path331"
       inkscape:connector-curvature="0"
       transform="scale(0.26458333)" />
    <path
       style="fill:#000000;stroke-width:0.99009901"
       d="m 235.12986,609.65471 c 3.51097,-13.36965 6.24218,-21.64578 8.41363,-25.49504 5.90446,-10.46666 5.4525,-10.35601 7.89961,-1.93405 l 2.17689,7.49199 4.07402,0.63178 c 7.43671,1.15325 7.53937,1.23418 7.53937,5.94342 0,3.70979 -0.40423,4.57153 -2.81147,5.99352 -1.70714,1.00843 -5.88786,6.6557 -10.64356,14.37718 l -7.8321,12.71642 -7.00743,0.0352 -7.00744,0.0352 z"
       id="path333"
       inkscape:connector-curvature="0"
       transform="scale(0.26458333)" />
    <path
       style="fill:#000000;stroke-width:0.99009901"
       d="m 157.31259,821.75563 v -16.60566 l 30.26328,-73.24583 c 16.6448,-40.28521 30.98738,-73.80277 31.8724,-74.48346 1.73008,-1.33065 16.08636,-1.77274 16.07629,-0.49505 -0.003,0.40841 -11.07053,37.88566 -24.59404,83.28276 l -24.58819,82.54019 -14.13813,7.80634 c -7.77597,4.2935 -14.30766,7.80635 -14.51487,7.80635 -0.20721,0 -0.37674,-7.47255 -0.37674,-16.60564 z"
       id="path335"
       inkscape:connector-curvature="0"
       transform="scale(0.26458333)" />
    <path
       style="fill:#000000;stroke-width:0.99009901"
       d="m 310.75738,933.66366 c -0.0113,-0.41136 -1.10839,-16.32165 -2.43796,-35.35618 -1.32957,-19.03454 -2.32279,-34.65138 -2.20716,-34.70409 0.11562,-0.0527 28.69735,-12.22355 63.51495,-27.0463 34.81759,-14.82276 63.44679,-27.09255 63.62045,-27.26621 0.17365,-0.17365 -1.95536,-9.85485 -4.73114,-21.51376 -4.32774,-18.17746 -6.86663,-25.99481 -17.81767,-54.8614 -7.02393,-18.51485 -15.36312,-40.15838 -18.53152,-48.09673 l -5.76072,-14.43337 4.02572,-15.443 c 2.21415,-8.49364 4.27455,-15.69181 4.57866,-15.99593 0.30412,-0.30411 13.39448,41.20956 29.08971,92.25261 15.69523,51.04304 28.70476,93.25694 28.91008,93.80865 0.20531,0.55172 -15.33932,10.84829 -34.54364,22.88127 l -34.91693,21.87814 -26.62814,5.25774 -26.62815,5.25774 0.55875,15.30887 0.55875,15.30889 -10.31674,11.75549 c -5.67421,6.46553 -10.326,11.41893 -10.3373,11.00757 z"
       id="path337"
       inkscape:connector-curvature="0"
       transform="scale(0.26458333)" />
    <path
       style="fill:#000000;stroke-width:0.99009901"
       d="m 333.55021,927.98636 v -16.54743 l 7.17822,-8.33966 c 6.54279,-7.60143 8.84348,-9.38427 25.9901,-20.14011 l 18.81188,-11.80043 38.00272,-7.52143 c 20.90149,-4.13678 38.16962,-7.35452 38.37362,-7.15052 0.204,0.204 -22.47386,12.51574 -50.39525,27.35943 l -50.76615,26.98852 -13.59757,16.84953 -13.59757,16.84952 z"
       id="path339"
       inkscape:connector-curvature="0"
       transform="scale(0.26458333)" />
    <path
       style="fill:#000000;stroke-width:0.99009901"
       d="m 312.3528,957.9514 c -0.36521,-6.69042 -0.90873,-13.9858 -1.20782,-16.21197 -0.53369,-3.97236 -0.35601,-4.26212 9.56239,-15.59406 5.55841,-6.35056 10.27639,-11.54648 10.48442,-11.54648 0.20802,0 0.37822,7.31733 0.37822,16.26074 v 16.26074 l -9.04829,11.21451 c -4.97657,6.16798 -9.15103,11.34195 -9.2766,11.4977 -0.12556,0.15576 -0.52711,-5.19077 -0.89232,-11.88118 z"
       id="path341"
       inkscape:connector-curvature="0"
       transform="scale(0.26458333)" />
    <path
       style="fill:#000000;stroke-width:0.99009901"
       d="m 288.20739,1003.9553 c 0.8243,-0.9529 5.38051,-6.52225 10.1249,-12.37621 7.93013,-9.78475 8.90009,-10.64356 12.02105,-10.64356 3.34438,0 3.39489,-0.0639 3.39489,-4.29217 0,-3.91849 0.75424,-5.22609 8.66337,-15.0194 l 8.66336,-10.72724 0.61317,7.34614 c 0.89804,10.75918 0.99607,44.47014 0.12941,44.50304 -0.40842,0.015 -8.98515,0.6711 -19.05941,1.457 -10.07425,0.7858 -20.05667,1.4414 -22.18315,1.4569 -3.59399,0.026 -3.76076,-0.094 -2.36759,-1.7045 z"
       id="path343"
       inkscape:connector-curvature="0"
       transform="scale(0.26458333)" />
    <path
       style="fill:#000000;stroke-width:0.99009901"
       d="m 249.56896,1004.6004 c -4.80674,-13.01724 -7.28822,-20.84425 -6.77209,-21.36037 0.34226,-0.34227 4.52802,-0.90713 9.30168,-1.25525 8.65892,-0.63145 8.68713,-0.62584 11.96621,2.37673 l 3.28683,3.00966 2.90976,-3.24292 2.90976,-3.24292 15.36133,0.27262 15.36132,0.27263 -8.04145,9.90099 c -4.4228,5.44554 -8.82641,10.88433 -9.7858,12.08623 -1.63282,2.0455 -2.82729,2.2292 -18.68195,2.8728 l -16.9376,0.6876 z"
       id="path345"
       inkscape:connector-curvature="0"
       transform="scale(0.26458333)" />
    <path
       style="fill:#000000;stroke-width:0.99009901"
       d="m 276.32773,977.2487 c 0.85107,-0.9673 8.17083,-9.39054 16.26613,-18.71832 8.0953,-9.32779 15.16427,-17.02173 15.70883,-17.09766 0.58345,-0.0814 1.42917,6.07093 2.05914,14.97941 l 1.06904,15.11746 -2.66172,3.46534 -2.66172,3.46535 -15.66355,0.27356 c -14.938,0.2609 -15.59187,0.1921 -14.11615,-1.48514 z"
       id="path347"
       inkscape:connector-curvature="0"
       transform="scale(0.26458333)" />
    <path
       style="fill:#000000;stroke-width:0.99009901"
       d="m 261.00446,1016.1657 -7.69426,-7.2514 13.95162,-0.7188 c 7.67339,-0.3954 14.15069,-0.5198 14.394,-0.2765 0.54081,0.5408 -11.386,15.6095 -12.30335,15.5444 -0.35956,-0.025 -4.11616,-3.3095 -8.34801,-7.2977 z"
       id="path349"
       inkscape:connector-curvature="0"
       transform="scale(0.26458333)" />
    <path
       style="fill:#000000;stroke-width:0.99009901"
       d="m 229.68245,985.93265 -15.2539,-14.57807 10.65677,-5.71623 c 9.2586,-4.96625 10.93517,-5.56251 12.77865,-4.5446 1.16704,0.6444 6.31443,5.08034 11.43866,9.85764 l 9.31677,8.68601 -9.28622,0.70102 c -5.10742,0.38556 -9.409,0.82379 -9.55906,0.97386 -0.15007,0.15007 1.0661,4.23397 2.70259,9.07535 1.63649,4.84138 2.85938,9.09963 2.71754,9.46279 -0.14185,0.36318 -7.12215,-5.89984 -15.5118,-13.91777 z"
       id="path351"
       inkscape:connector-curvature="0"
       transform="scale(0.26458333)" />
    <path
       style="fill:#000000;stroke-width:0.99009901"
       d=""
       id="path353"
       inkscape:connector-curvature="0"
       transform="scale(0.26458333)" />
    <path
       style="fill:#000000;stroke-width:0.99009901"
       d=""
       id="path355"
       inkscape:connector-curvature="0"
       transform="scale(0.26458333)" />
    <path
       style="fill:#000000;stroke-width:0.99009901"
       d=""
       id="path357"
       inkscape:connector-curvature="0"
       transform="scale(0.26458333)" />
    <path
       style="fill:#000000;stroke-width:0.99009901"
       d=""
       id="path359"
       inkscape:connector-curvature="0"
       transform="scale(0.26458333)" />
    <path
       style="fill:#000000;stroke-width:0.99009901"
       d="m 246.82829,995.34688 c -2.10301,-6.22849 -3.61179,-11.52369 -3.35284,-11.7671 0.25894,-0.24342 4.08448,-0.75606 8.5012,-1.13921 l 8.0304,-0.69663 3.73121,3.27604 3.7312,3.27604 3.08988,-3.51935 3.08988,-3.51935 14.5699,0.44338 14.5699,0.44337 -8.60476,10.53434 c -4.73261,5.79389 -9.05751,10.84989 -9.61087,11.23549 -1.28104,0.8928 -7.92034,1.5514 -22.42281,2.2241 l -11.49865,0.5334 z"
       id="path361"
       inkscape:connector-curvature="0"
       transform="scale(0.26458333)" />
    <path
       style="fill:#000000;stroke-width:0.99009901"
       d="m 246.80218,995.3959 c -2.0662,-6.27789 -3.55405,-11.60433 -3.30633,-11.83653 0.24772,-0.23219 4.06408,-0.73565 8.4808,-1.1188 l 8.0304,-0.69663 3.69626,3.24536 3.69625,3.24535 3.12483,-3.60443 3.12483,-3.60443 14.56447,0.59386 14.56447,0.59387 -8.58352,10.49962 c -4.72093,5.77479 -9.04338,10.81516 -9.60545,11.20076 -1.28308,0.8804 -7.7374,1.541 -22.48512,2.3012 l -11.54515,0.5952 z"
       id="path363"
       inkscape:connector-curvature="0"
       transform="scale(0.26458333)" />
    <path
       style="fill:#000000;stroke-width:0.99009901"
       d=""
       id="path365"
       inkscape:connector-curvature="0"
       transform="scale(0.26458333)" />
    <path
       style="fill:#000000;stroke-width:0.99009901"
       d=""
       id="path367"
       inkscape:connector-curvature="0"
       transform="scale(0.26458333)" />
    <path
       style="fill:#000000;stroke-width:0.99009901"
       d=""
       id="path369"
       inkscape:connector-curvature="0"
       transform="scale(0.26458333)" />
    <path
       style="fill:#000000;stroke-width:0.99009901"
       d=""
       id="path371"
       inkscape:connector-curvature="0"
       transform="scale(0.26458333)" />
    <path
       style="fill:#000000;stroke-width:0.99009901"
       d=""
       id="path373"
       inkscape:connector-curvature="0"
       transform="scale(0.26458333)" />
    <path
       style="fill:#000000;stroke-width:0.99009901"
       d=""
       id="path375"
       inkscape:connector-curvature="0"
       transform="scale(0.26458333)" />
    <path
       style="fill:#1a1a1a;stroke-width:0.46296296"
       d="m 265.14367,982.99569 c -1.09938,-1.04491 -1.90613,-1.99257 -1.79278,-2.10592 0.11335,-0.11335 1.81757,-0.14478 3.78716,-0.0698 l 3.58106,0.13623 -1.78829,1.96969 -1.78829,1.96969 z"
       id="path377"
       inkscape:connector-curvature="0"
       transform="scale(0.26458333)" />
    <path
       style="fill:#1a1a1a;stroke-width:0.46296296"
       d="m 265.54522,982.92658 -1.5474,-1.50746 1.44629,-0.14431 c 0.79546,-0.0794 2.19417,-0.0794 3.10824,0 l 1.66196,0.14431 -1.56085,1.50746 -1.56085,1.50745 z"
       id="path379"
       inkscape:connector-curvature="0"
       transform="scale(0.26458333)" />
    <path
       style="fill:#1a1a1a;stroke-width:0.46296296"
       d="m 287.99743,1004.7587 c 0.69382,-1.1316 15.05376,-18.62385 16.81614,-20.48422 2.13757,-2.25642 3.72844,-3.08502 5.94023,-3.09393 0.9675,-0.004 2.0303,-0.17911 2.36177,-0.38936 0.352,-0.22327 0.75638,-1.90705 0.97224,-4.04832 0.20327,-2.01633 0.71585,-4.33567 1.13907,-5.15409 0.42322,-0.81842 4.02882,-5.57584 8.01244,-10.57205 5.23387,-6.56426 7.345,-8.90164 7.6109,-8.4265 1.07719,1.92483 1.8212,48.64207 0.79104,49.67027 -0.41621,0.4154 -26.23402,2.4393 -36.21634,2.839 -6.68202,0.2676 -7.76995,0.2177 -7.42749,-0.3408 z"
       id="path381"
       inkscape:connector-curvature="0"
       transform="scale(0.26458333)" />
  </g>
  <g
     inkscape:groupmode="layer"
     id="layer3"
     inkscape:label="Color"
     style="display:inline"
     sodipodi:insensitive="true">
    <path
       style="fill:#1a1a1a;stroke-width:1.40845072"
       d="m 262.07505,1016.1035 -6.0876,-6.2028 10.61128,-0.9944 c 5.8362,-0.5469 11.33674,-0.7525 12.22342,-0.457 1.63478,0.5449 -7.59616,13.857 -9.60882,13.857 -0.57787,0 -3.7901,-2.7913 -7.13828,-6.2028 z"
       id="path385"
       inkscape:connector-curvature="0"
       transform="scale(0.26458333)" />
    <path
       style="fill:#1a1a1a;stroke-width:1.21951222"
       d="m 356.99549,433.09388 c -2.01226,-3.56553 -7.84782,-10.9359 -12.96791,-16.37858 l -9.30925,-9.89579 7.74701,-4.33238 c 25.65099,-14.34485 64.55916,-30.96717 88.85267,-37.95958 33.7091,-9.70249 48.01734,-11.21437 116.86855,-12.34889 l 49.35139,-0.8132 -9.10749,9.95921 c -6.66884,7.29249 -10.08711,10.1051 -12.76602,10.50407 -2.0122,0.29967 -20.67074,0.8426 -41.46342,1.2065 -39.84549,0.69736 -53.79523,2.06846 -75,7.37167 -34.6421,8.66382 -59.66721,22.67417 -87.99295,49.263 l -10.55392,9.90677 z"
       id="path387"
       inkscape:connector-curvature="0"
       transform="scale(0.26458333)" />
    <path
       style="fill:#1a1a1a;stroke-width:1.21951222"
       d="m 366.06295,454.89869 c -1.09114,-4.34382 -1.98388,-8.47128 -1.98388,-9.17213 0,-1.75767 27.08183,-14.76808 43.32884,-20.81567 15.31175,-5.69945 39.50323,-12.21699 57.28092,-15.43231 19.22754,-3.47755 75.36768,-3.11631 99.39024,0.63953 9.72561,1.52057 18.11332,3.19172 18.63935,3.71368 0.52604,0.52196 -3.77858,5.97899 -9.5658,12.12673 -11.14565,11.83996 -13.16785,12.80631 -20.75907,9.92013 -1.81926,-0.69168 -11.32144,-2.92546 -21.11598,-4.96397 -23.74179,-4.94131 -57.43558,-6.24155 -77.08071,-2.97455 -24.68844,4.1057 -51.73357,14.74696 -81.12172,31.91838 l -5.02832,2.93804 z"
       id="path389"
       inkscape:connector-curvature="0"
       transform="scale(0.26458333)" />
    <path
       style="fill:#1a1a1a;stroke-width:1.21951222"
       d="m 369.21268,477.12763 0.35419,-10.00862 23.17074,-7.58442 c 52.67904,-17.24332 77.80342,-20.01516 97.92437,-10.80348 7.94253,3.63621 29.99149,18.8226 28.90532,19.90877 -0.42823,0.42823 -5.75575,2.50866 -11.83895,4.62318 l -11.06033,3.84457 -12.94082,-7.21773 c -27.84901,-15.53276 -35.73424,-14.86601 -89.2122,7.54345 -12.73525,5.33659 -23.71784,9.70289 -24.40576,9.70289 -0.78184,0 -1.11797,-3.75228 -0.89656,-10.00861 z"
       id="path391"
       inkscape:connector-curvature="0"
       transform="scale(0.26458333)" />
    <path
       style="fill:#1a1a1a;stroke-width:1.21951222"
       d="m 397.31936,864.82251 c 1.1785,-0.9615 14.72919,-9.64218 30.11265,-19.2904 19.21387,-12.05057 27.83037,-18.11487 27.52415,-19.37148 -1.2042,-4.94164 -24.24561,-82.07757 -34.97114,-117.07317 -19.73807,-64.40202 -24.33945,-78.39855 -25.40575,-77.27948 -0.55549,0.58298 -2.7811,7.79916 -4.94579,16.03593 -2.16469,8.2368 -4.10428,14.8075 -4.31019,14.6016 -0.20591,-0.20591 -0.96269,-16.95346 -1.68173,-37.21677 l -1.30735,-36.84238 -8.89994,-12.5153 c -4.89496,-6.88342 -12.35075,-17.65332 -16.56842,-23.93311 l -7.6685,-11.4178 5.91647,-6.05702 c 3.25406,-3.33136 7.398,-7.12874 9.20875,-8.43861 l 3.29228,-2.38159 4.8043,5.22227 c 11.89261,12.92726 41.95059,49.12069 42.92731,51.68965 1.02529,2.69671 15.32498,56.80191 48.79669,184.63017 8.16682,31.18903 14.83871,57.80488 14.82642,59.14634 -0.029,3.16652 -8.48039,25.17768 -10.38178,27.03874 -0.80297,0.78592 -16.27701,4.25033 -34.38677,7.69867 -18.10975,3.44834 -34.29878,6.54696 -35.97561,6.88583 -2.80512,0.56686 -2.87753,0.47639 -0.90605,-1.13209 z"
       id="path393"
       inkscape:connector-curvature="0"
       transform="scale(0.26458333)" />
    <path
       style="fill:#1a1a1a;stroke-width:1.21951222"
       d="m 334.02608,737.03594 c -9.42666,-3.62525 -15.60583,-9.85343 -39.70754,-40.02253 -31.57324,-39.52152 -29.60563,-37.72548 -45.48337,-41.51753 -9.6862,-2.31333 -9.38765,-1.47557 -5.37728,-15.08959 l 2.44949,-8.31531 3.90292,0.77771 c 17.29572,3.44645 15.32674,1.99484 63.47866,46.79896 16.6691,15.51016 31.02984,28.2003 31.91277,28.2003 1.85387,0 2.19268,-1.00407 19.54693,-57.92683 13.38285,-43.8964 15.07629,-48.7347 15.15273,-43.29268 0.0235,1.67683 0.61625,17.65287 1.31712,35.5023 l 1.2743,32.45353 -3.78669,14.9991 c -6.76217,26.78499 -10.47823,36.8978 -15.43333,41.9999 -8.04421,8.28286 -17.34367,10.01027 -29.24671,5.43267 z"
       id="path395"
       inkscape:connector-curvature="0"
       transform="scale(0.26458333)" />
    <path
       style="fill:#1a1a1a;stroke-width:1.21951222"
       d="m 311.2539,929.81917 c -1.22361,-3.73712 -4.63624,-64.97305 -3.6683,-65.82362 0.55312,-0.48606 29.13067,-12.84786 63.50567,-27.47065 34.375,-14.6228 62.49791,-27.18986 62.49535,-27.92682 -0.003,-0.73693 -1.88006,-9.2972 -4.17225,-19.02281 -4.93859,-20.95415 -9.45998,-34.24164 -28.19744,-82.86666 l -14.05392,-36.47091 3.07417,-12.12754 c 4.96892,-19.60225 4.27771,-19.7873 11.45623,3.06697 15.6251,49.74567 50.18821,162.21876 50.16516,163.24436 -0.0301,1.34358 -7.71735,6.47695 -42.69517,28.51113 l -26.25714,16.54062 -24.35262,4.65409 c -13.39394,2.55974 -25.39307,4.94997 -26.66473,5.31162 -2.16119,0.61462 -2.26731,1.66498 -1.62573,16.0909 l 0.68639,15.43337 -9.54837,10.34261 c -6.60884,7.15857 -9.73275,9.77946 -10.1473,8.51334 z"
       id="path397"
       inkscape:connector-curvature="0"
       transform="scale(0.26458333)" />
    <path
       style="fill:#1a1a1a;stroke-width:1.21951222"
       d="M 333.59127,927.50514 V 911.6424 l 9.45121,-9.57539 c 6.84932,-6.93929 14.07326,-12.45724 26.24041,-20.04354 l 16.78918,-10.46816 34.95566,-6.82648 c 19.22561,-3.75457 35.16494,-6.6172 35.42073,-6.36141 0.41313,0.41314 -26.45148,14.99826 -78.345,42.53444 l -17.07317,9.05952 -13.71951,16.70325 -13.71951,16.70325 z"
       id="path399"
       inkscape:connector-curvature="0"
       transform="scale(0.26458333)" />
    <path
       style="fill:#1a1a1a;stroke-width:1.21951222"
       d="m 313.57959,966.23514 c -0.2898,-0.91293 -0.8599,-7.69646 -1.26689,-15.07451 l -0.73997,-13.41463 9.23841,-10.67073 c 5.08113,-5.86891 9.48652,-10.67073 9.78976,-10.67073 0.30324,0 0.55134,6.79107 0.55134,15.09127 v 15.09126 l -8.52287,10.65398 c -5.03665,6.29604 -8.7384,9.97501 -9.04978,8.99409 z"
       id="path401"
       inkscape:connector-curvature="0"
       transform="scale(0.26458333)" />
    <path
       style="fill:#1a1a1a;stroke-width:1.21951222"
       d="m 278.81051,975.3809 c 1.73034,-1.91871 8.80835,-9.96542 15.72891,-17.88159 6.92057,-7.91617 13.01599,-13.95276 13.54539,-13.41464 0.52939,0.53812 1.3016,7.01499 1.71602,14.39304 0.68191,12.14035 0.52715,13.6975 -1.62923,16.39244 -2.24764,2.80899 -3.23669,3.00678 -17.44495,3.48857 l -15.06221,0.51075 z"
       id="path403"
       inkscape:connector-curvature="0"
       transform="scale(0.26458333)" />
    <path
       style="fill:#1a1a1a;stroke-width:1.21951222"
       d="m 250.35156,1005.8328 c -1.62323,-2.8406 -7.16069,-21.38559 -6.56389,-21.9824 0.38067,-0.38067 4.41599,-0.9566 8.96737,-1.27985 7.30108,-0.51853 8.54873,-0.28439 10.59841,1.98899 3.03289,3.36391 4.89584,3.25152 7.82482,-0.47208 2.09816,-2.66738 3.29156,-3.03222 9.53973,-2.91642 3.92786,0.0728 10.38417,0.48438 14.34736,0.91463 l 7.2058,0.78228 -8.73695,10.5907 c -4.80532,5.82488 -9.69427,10.85685 -10.86434,11.18205 -4.20097,1.1677 -31.75152,2.184 -32.31831,1.1921 z"
       id="path405"
       inkscape:connector-curvature="0"
       transform="scale(0.26458333)" />
    <path
       style="fill:#1a1a1a;stroke-width:1.21951222"
       d="m 228.89193,984.14976 -13.49623,-12.88878 9.68047,-4.86725 c 5.32426,-2.67698 10.428,-4.86724 11.34164,-4.86724 0.91364,0 6.00205,4.09015 11.30756,9.08923 l 9.64638,9.08923 -7.31707,0.0758 c -10.67456,0.11056 -11.33623,0.81212 -8.68833,9.2122 1.19526,3.79182 1.91414,7.15328 1.5975,7.46991 -0.31663,0.31664 -6.649,-5.22425 -14.07192,-12.31308 z"
       id="path407"
       inkscape:connector-curvature="0"
       transform="scale(0.26458333)" />
    <path
       style="fill:#1a1a1a;stroke-width:1.21951222"
       d="m 224.82725,643.23834 4.49572,-10.97108 6.40244,-0.005 c 3.52134,-0.003 6.40244,0.32672 6.40244,0.73158 0,0.40487 -1.43663,5.34389 -3.19251,10.97561 l -3.19251,10.23949 h -7.70565 -7.70565 z"
       id="path409"
       inkscape:connector-curvature="0"
       transform="scale(0.26458333)" />
    <path
       style="fill:#1a1a1a;stroke-width:1.21951222"
       d="m 231.15224,627.58802 c 0,-2.32086 8.76536,-33.00508 11.03304,-38.62251 1.35382,-3.35366 3.49251,-7.44667 4.75263,-9.09559 l 2.29113,-2.99803 2.02374,6.96144 c 1.65946,5.70834 2.50209,6.96445 4.68112,6.9781 9.32469,0.0584 11.0638,5.60311 4.15597,13.25018 -2.19406,2.42885 -6.7215,8.9293 -10.06098,14.44545 l -6.07177,10.02935 -6.40244,0.0316 c -3.52134,0.0174 -6.40244,-0.42361 -6.40244,-0.98001 z"
       id="path411"
       inkscape:connector-curvature="0"
       transform="scale(0.26458333)" />
    <path
       style="fill:#1a1a1a;stroke-width:1.21951222"
       d="m 157.98151,821.25289 v -16.09196 l 14.15093,-34.31722 c 20.1862,-48.95324 42.91913,-102.83265 45.62652,-108.13956 2.67467,-5.24279 4.25145,-6.05571 11.74593,-6.05571 4.63802,0 5.37389,0.32468 4.83692,2.13414 -0.34834,1.17378 -10.80161,36.49473 -23.22951,78.491 -12.42789,41.99627 -23.29268,78.41021 -24.14397,80.91987 -1.39853,4.12298 -2.87084,5.26644 -15.26731,11.85721 l -13.71951,7.2942 z"
       id="path413"
       inkscape:connector-curvature="0"
       transform="scale(0.26458333)" />
    <path
       style="fill:#1a1a1a;stroke-width:1.21951222"
       d="m 202.59943,653.87261 c -0.95587,-1.49159 -3.0031,-5.34731 -4.54941,-8.56828 -2.30601,-4.80343 -2.51032,-6.04241 -1.13644,-6.89152 2.38161,-1.47192 26.9509,-6.53181 27.76473,-5.71798 0.37191,0.37191 -1.16803,5.38711 -3.42208,11.1449 -3.00645,7.67974 -4.75206,10.59655 -6.55235,10.94861 -9.59963,1.87728 -10.35102,1.82044 -12.10445,-0.91573 z"
       id="path415"
       inkscape:connector-curvature="0"
       transform="scale(0.26458333)" />
    <path
       style="fill:#1a1a1a;stroke-width:1.21951222"
       d="m 205.48272,655.73173 c -2.32078,-0.47574 -8.47682,-9.72927 -8.47682,-12.74203 0,-1.20721 -0.67089,-2.19492 -1.49086,-2.19492 -3.43657,0 3.87823,-3.35733 10.6372,-4.88223 17.32799,-3.9094 17.68293,-3.91802 17.68293,-0.42906 0,1.59795 -0.47663,3.85828 -1.05917,5.02296 -0.58255,1.16468 -2.43168,4.8615 -4.10919,8.21516 -2.57599,5.1499 -3.69072,6.19856 -7.17253,6.74746 -2.26739,0.35745 -4.97259,0.47564 -6.01156,0.26266 z"
       id="path417"
       inkscape:connector-curvature="0"
       transform="scale(0.26458333)" />
    <path
       style="fill:#1a1a1a;stroke-width:1.21951222"
       d="m 222.7936,647.80697 c 6.93386,-17.19766 5.66142,-15.54878 11.99891,-15.54878 3.14013,0 6.00068,0.29136 6.35678,0.64746 0.53869,0.53869 -1.93311,10.59487 -4.71187,19.16962 -0.56281,1.73673 -2.13792,2.13414 -8.4584,2.13414 h -7.7668 z"
       id="path419"
       inkscape:connector-curvature="0"
       transform="scale(0.26458333)" />
    <path
       style="fill:#1a1a1a;stroke-width:1.21951222"
       d="m 342.10582,739.16154 c -0.34748,-0.35563 -1.99382,-0.8613 -3.65853,-1.12372 -8.67863,-1.36808 -21.903,-12.73721 -35.95359,-30.90969 -1.34146,-1.73499 -3.55436,-4.42471 -4.91756,-5.97715 -1.3632,-1.55244 -3.83271,-4.60458 -5.48781,-6.78253 -1.65509,-2.17795 -3.56209,-4.55899 -4.23777,-5.29118 -0.67568,-0.7322 -5.00378,-5.99591 -9.61799,-11.69712 -13.84778,-17.11 -17.56079,-19.69432 -32.40232,-22.55253 -4.46085,-0.85908 -6.27718,-2.96392 -4.85338,-5.62431 0.68024,-1.27103 0.92379,-2.31097 0.54122,-2.31097 -0.38256,0 -0.14862,-1.02198 0.51987,-2.27106 0.66849,-1.24908 1.53483,-4.084 1.9252,-6.29981 1.04177,-5.91329 1.57856,-6.31861 7.13131,-5.38479 8.06075,1.35559 18.31593,6.54395 25.17398,12.73615 1.85714,1.67683 7.94136,7.16463 13.5205,12.19512 5.57914,5.03049 18.12862,16.5654 27.88773,25.63314 20.44414,18.99579 26.59762,24.36686 27.91641,24.36686 0.51773,0 3.56714,-8.3689 6.77646,-18.59756 3.20932,-10.22866 6.80918,-21.61585 7.9997,-25.30488 4.62792,-14.34033 6.49284,-20.62551 6.22403,-20.97623 -0.15397,-0.20088 0.85063,-3.23353 2.23245,-6.73922 1.38182,-3.50569 2.78262,-7.86418 3.11289,-9.68552 0.73554,-4.05621 6.9731,-21.34362 7.50808,-20.80864 0.21199,0.212 0.67993,8.59406 1.03985,18.6268 0.35991,10.03274 1.00854,24.27793 1.44141,31.65598 0.93557,15.94652 0.80678,19.17984 -1.02011,25.60976 -0.76228,2.68292 -1.53583,5.42683 -1.71901,6.09756 -1.20425,4.40965 -1.84609,6.84949 -3.36851,12.80488 -0.94305,3.68902 -2.31071,8.21646 -3.03924,10.06097 -0.72852,1.84451 -0.99658,3.35366 -0.59568,3.35366 0.40089,0 0.0457,0.82317 -0.78927,1.82927 -0.83498,1.0061 -1.10937,1.82927 -0.60975,1.82927 0.49962,0 0.22523,0.82317 -0.60976,1.82927 -0.83499,1.00609 -1.13921,1.82926 -0.67604,1.82926 0.46318,0 -0.2928,1.59387 -1.67995,3.54192 -1.38713,1.94805 -2.52206,3.86878 -2.52206,4.26829 0,1.33687 -4.70889,5.45432 -8.45071,7.38929 -3.88712,2.0101 -13.66039,3.78647 -14.74205,2.67946 z"
       id="path421"
       inkscape:connector-curvature="0"
       transform="scale(0.26458333)" />
    <path
       style="fill:#1a1a1a;stroke-width:1.21951222"
       d="m 260.63421,562.71077 c -16.26081,-4.2596 -30.20753,-12.73882 -42.12443,-25.61049 -24.43002,-26.38734 -29.56448,-66.36831 -12.73782,-99.18686 7.40342,-14.43957 23.50169,-30.32777 37.66379,-37.17232 13.30753,-6.43154 23.27069,-8.69076 38.32625,-8.69076 15.19599,0 25.12816,2.27241 38.41463,8.78897 8.36912,4.10477 12.49938,7.20939 21.44184,16.11735 8.99464,8.95992 12.0334,12.98115 16.17087,21.3991 7.70277,15.67176 10.43528,28.17711 9.59301,43.90243 -1.26804,23.6743 -9.02395,41.05682 -25.86426,57.96682 -11.2967,11.34345 -24.061,18.694 -39.17468,22.55943 -12.29377,3.14422 -29.54138,3.11375 -41.7092,-0.0737 z"
       id="path423"
       inkscape:connector-curvature="0"
       transform="scale(0.26458333)" />
    <path
       style="fill:#1a1a1a;stroke-width:1.21951222"
       d="m 355.76052,431.84443 c -2.73907,-4.23537 -8.5689,-11.57688 -12.95518,-16.31446 l -7.97506,-8.6138 2.80001,-1.83463 c 5.65918,-3.70804 35.00826,-17.93892 49.7199,-24.10835 36.6384,-15.36457 56.70181,-21.22772 85.59397,-25.0132 12.47832,-1.63492 122.61611,-5.82745 123.88726,-4.71592 0.73924,0.6464 -9.93673,12.56224 -14.70501,16.41282 -5.44977,4.4009 -5.50899,4.40778 -46.70588,5.42446 -46.85156,1.15622 -64.49976,3.43121 -90.01076,11.60312 -28.36056,9.08469 -47.45848,20.8028 -75.02567,46.03425 l -9.64346,8.82638 z"
       id="path425"
       inkscape:connector-curvature="0"
       transform="scale(0.26458333)" />
    <path
       style="fill:#1a1a1a;stroke-width:1.21951222"
       d="m 366.60363,458.17283 c -0.6754,-2.51525 -1.53881,-6.53825 -1.91871,-8.94001 l -0.69071,-4.36684 19.47521,-9.31296 c 21.82055,-10.43449 26.00903,-11.97329 51.95111,-19.08621 28.98407,-7.94698 34.76646,-8.64057 71.92122,-8.6268 18.12626,0.007 37.07269,0.31203 42.10317,0.67847 11.82443,0.86136 30.77975,4.03165 32.12024,5.37214 1.41851,1.41852 -13.35921,18.05674 -18.8197,21.18907 l -4.38238,2.5139 -13.30055,-3.2051 c -26.46337,-6.37701 -35.09333,-7.44532 -60.86151,-7.53408 -16.09684,-0.0554 -27.29293,0.48707 -32.92683,1.59553 -20.51696,4.03665 -52.78377,16.91048 -74.95985,29.90753 -4.11834,2.41369 -7.71173,4.38853 -7.98531,4.38853 -0.27358,0 -1.05001,-2.05793 -1.7254,-4.57317 z"
       id="path427"
       inkscape:connector-curvature="0"
       transform="scale(0.26458333)" />
    <path
       style="fill:#1a1a1a;stroke-width:1.21951222"
       d="m 369.6767,485.15342 c -0.92125,-2.40073 -0.92555,-10.09709 -0.008,-14.68379 0.64006,-3.20029 1.7098,-3.89585 10.67073,-6.93832 5.47765,-1.85981 10.50814,-3.42547 11.17887,-3.47925 0.67074,-0.0538 5.06098,-1.43291 9.7561,-3.06474 4.69512,-1.63183 9.35976,-3.15683 10.36586,-3.38888 1.00609,-0.23206 1.96646,-0.53251 2.13414,-0.66767 0.3658,-0.29485 0.7638,-0.38754 7.00291,-1.63098 2.67782,-0.53369 5.42172,-1.31667 6.09756,-1.73997 1.24204,-0.77792 2.40971,-1.07901 7.93612,-2.04639 1.67683,-0.29353 7.43902,-1.32526 12.80488,-2.29273 8.91597,-1.60758 25.72223,-1.79422 31.70731,-0.35213 5.87567,1.41572 20.43271,8.05835 21.13821,9.64572 0.22359,0.50305 1.18395,0.91464 2.13415,0.91464 0.9502,0 1.72764,0.54878 1.72764,1.21951 0,0.67073 0.57273,1.21951 1.27273,1.21951 0.70002,0 2.75233,1.37195 4.56072,3.04878 1.80838,1.67683 3.84755,3.04878 4.53147,3.04878 0.68392,0 1.89972,1.05076 2.70175,2.33503 1.42045,2.2745 0.34184,4.49755 -2.38313,4.9117 -0.49601,0.0754 -1.59357,0.39051 -2.43903,0.70026 -14.55609,5.33305 -14.81623,5.36546 -20.54307,2.55975 -2.9614,-1.45085 -8.95144,-4.63552 -13.31119,-7.07704 -15.31684,-8.57763 -24.91083,-9.94573 -40.96346,-5.84137 -7.58521,1.9394 -39.44317,13.94081 -54.76825,20.63209 -9.68127,4.22706 -12.5739,4.87223 -13.30481,2.96749 z"
       id="path429"
       inkscape:connector-curvature="0"
       transform="scale(0.26458333)" />
    <path
       style="fill:#1a1a1a;stroke-width:1.21951222"
       d="m 288.48639,1004.6825 c 0.0388,-2.4572 19.08277,-22.97032 21.94703,-23.6401 2.23986,-0.52378 3.14382,-1.64651 3.44749,-4.28185 0.45422,-3.94184 2.72195,-7.55242 11.22418,-17.87067 l 5.68963,-6.9049 0.78852,12.88729 c 1.04197,17.02979 0.97155,34.73889 -0.1448,36.41033 -0.49277,0.7377 -6.38376,1.7033 -13.09108,2.1456 -6.70731,0.4423 -16.17378,1.1491 -21.03658,1.5706 -4.91629,0.4263 -8.83388,0.2858 -8.82439,-0.3163 z"
       id="path431"
       inkscape:connector-curvature="0"
       transform="scale(0.26458333)" />
    <path
       style="fill:#1a1a1a;stroke-width:1.21951222"
       d="m 288.48639,1004.6825 c 0.0388,-2.4572 19.08277,-22.97032 21.94703,-23.6401 2.22653,-0.52066 3.14428,-1.6483 3.44246,-4.2297 0.43369,-3.75461 2.45903,-7.03983 11.1788,-18.13266 l 5.4878,-6.9813 0.75524,8.87729 c 1.09595,12.88209 1.1867,39.13892 0.14072,40.71587 -0.49277,0.743 -6.38376,1.7197 -13.09108,2.1706 -6.70731,0.4509 -16.17378,1.1535 -21.03658,1.5613 -4.89781,0.4108 -8.83385,0.2586 -8.82439,-0.3413 z"
       id="path433"
       inkscape:connector-curvature="0"
       transform="scale(0.26458333)" />
  </g>
  <g
     style="display:none"
     inkscape:label="Color copia"
     id="g772"
     inkscape:groupmode="layer">
    <path
       inkscape:connector-curvature="0"
       id="path722"
       d="m 109.34092,258.47195 -1.61068,-1.64116 2.80757,-0.2631 c 1.54416,-0.1447 2.99951,-0.1991 3.23411,-0.12092 0.43254,0.14417 -2.00982,3.66633 -2.54233,3.66633 -0.1529,0 -1.0028,-0.73853 -1.88867,-1.64115 z"
       style="fill:#1a1a1a;stroke-width:0.37265259" />
    <path
       inkscape:connector-curvature="0"
       id="path724"
       d="m 134.45528,104.21732 c -0.53241,-0.94338 -2.0764,-2.89346 -3.43109,-4.333499 l -2.46307,-2.618261 2.04973,-1.146275 c 6.78682,-3.795408 17.08128,-8.193397 23.50893,-10.043472 8.91887,-2.567118 12.70459,-2.967136 30.92147,-3.267311 l 13.05756,-0.215159 -2.40969,2.635041 c -1.76446,1.929471 -2.66888,2.673641 -3.37768,2.779202 -0.53239,0.07929 -5.46913,0.222938 -10.97053,0.31922 -10.54245,0.184509 -14.23332,0.54728 -19.84375,1.950421 -9.16572,2.292302 -15.78695,5.999207 -23.28146,13.034173 l -2.79239,2.62116 z"
       style="fill:#1a1a1a;stroke-width:0.32266259" />
    <path
       inkscape:connector-curvature="0"
       id="path726"
       d="m 136.85438,109.98651 c -0.28869,-1.1493 -0.5249,-2.24136 -0.5249,-2.42679 0,-0.46505 7.1654,-3.90739 11.46409,-5.50748 4.05123,-1.50798 10.4519,-3.232414 15.15558,-4.083134 5.08728,-0.920102 19.94103,-0.824524 26.297,0.169209 2.57323,0.402317 4.79248,0.844476 4.93166,0.982578 0.13918,0.138102 -0.99975,1.581937 -2.53095,3.208527 -2.94896,3.13266 -3.484,3.38834 -5.49251,2.6247 -0.48134,-0.183 -2.99546,-0.77402 -5.58693,-1.31338 -6.28168,-1.30739 -15.1965,-1.65141 -20.39427,-0.78702 -6.53215,1.0863 -13.68784,3.9018 -21.46346,8.44508 l -1.33041,0.77735 z"
       style="fill:#1a1a1a;stroke-width:0.32266259" />
    <path
       inkscape:connector-curvature="0"
       id="path728"
       d="m 137.68775,115.86792 0.0937,-2.64812 6.13059,-2.00671 c 13.938,-4.56229 20.58549,-5.29568 25.90916,-2.85842 2.10146,0.96208 7.93525,4.98015 7.64787,5.26753 -0.11331,0.1133 -1.52288,0.66375 -3.13239,1.22322 l -2.92638,1.01721 -3.42393,-1.9097 c -7.36838,-4.10971 -9.45468,-3.93329 -23.60406,1.99588 -3.36953,1.41197 -6.27534,2.56722 -6.45736,2.56722 -0.20686,0 -0.29579,-0.99279 -0.23721,-2.64811 z"
       style="fill:#1a1a1a;stroke-width:0.32266259" />
    <path
       inkscape:connector-curvature="0"
       id="path730"
       d="m 145.12431,218.44552 c 0.31181,-0.2544 3.8971,-2.55116 7.9673,-5.10392 5.08367,-3.18838 7.36346,-4.79289 7.28243,-5.12537 -0.31861,-1.30748 -6.41498,-21.71636 -9.25278,-30.97561 -5.22236,-17.0397 -6.43981,-20.74295 -6.72193,-20.44686 -0.14698,0.15425 -0.73584,2.06353 -1.30858,4.24284 -0.57274,2.17932 -1.08592,3.91782 -1.1404,3.86334 -0.0545,-0.0545 -0.25471,-4.4856 -0.44496,-9.84694 l -0.3459,-9.74788 -2.35478,-3.31134 c -1.29512,-1.82124 -3.2678,-4.67077 -4.38373,-6.3323 l -2.02895,-3.02096 1.5654,-1.60259 c 0.86097,-0.88142 1.95738,-1.88614 2.43648,-2.23271 l 0.87108,-0.63013 1.27114,1.38173 c 3.14658,3.42033 11.09942,12.99651 11.35785,13.67622 0.27127,0.7135 4.05473,15.02883 12.91079,48.85006 2.1608,8.2521 3.92607,15.29421 3.92282,15.64914 -0.008,0.8378 -2.24377,6.66159 -2.74684,7.154 -0.21246,0.20794 -4.30663,1.12456 -9.09817,2.03694 -4.79154,0.91237 -9.07488,1.73221 -9.51855,1.82187 -0.74218,0.14998 -0.76134,0.12605 -0.23972,-0.29953 z"
       style="fill:#1a1a1a;stroke-width:0.32266259" />
    <path
       inkscape:connector-curvature="0"
       id="path732"
       d="m 128.37796,184.63532 c -2.49414,-0.95918 -4.12904,-2.60705 -10.50595,-10.58929 -8.35375,-10.45674 -7.83316,-9.98153 -12.03414,-10.98485 -2.56281,-0.61207 -2.48382,-0.39041 -1.42274,-3.99245 l 0.64809,-2.20009 1.03265,0.20577 c 4.57616,0.91187 4.0552,0.5278 16.7954,12.38222 4.41036,4.10373 8.20997,7.46133 8.44358,7.46133 0.49051,0 0.58015,-0.26566 5.17179,-15.32647 3.54088,-11.61426 3.98894,-12.89439 4.00916,-11.45453 0.006,0.44367 0.16305,4.67066 0.34849,9.39332 l 0.33716,8.58666 -1.00189,3.96852 c -1.78916,7.08686 -2.77237,9.76254 -4.08341,11.11247 -2.12836,2.19151 -4.58884,2.64855 -7.73819,1.43739 z"
       style="fill:#1a1a1a;stroke-width:0.32266259" />
    <path
       inkscape:connector-curvature="0"
       id="path734"
       d="m 122.35282,235.64255 c -0.32374,-0.98878 -1.22667,-17.19078 -0.97057,-17.41583 0.14635,-0.1286 7.70749,-3.39933 16.80254,-7.26828 9.09505,-3.86895 16.53591,-7.19398 16.53523,-7.38897 -7.9e-4,-0.19498 -0.49743,-2.45988 -1.10391,-5.03312 -1.30667,-5.54412 -2.50295,-9.05976 -7.46057,-21.92513 l -3.71843,-9.6496 0.81337,-3.20874 c 1.3147,-5.18643 1.13181,-5.23539 3.03113,0.81147 4.13414,13.16187 13.27896,42.92038 13.27286,43.19173 -0.008,0.35549 -2.04188,1.7137 -11.29643,7.54357 l -6.9472,4.37637 -6.44329,1.2314 c -3.54382,0.67726 -6.71859,1.30968 -7.05505,1.40537 -0.57181,0.16261 -0.59989,0.44052 -0.43014,4.25738 l 0.18161,4.08341 -2.52634,2.73648 c -1.74859,1.89404 -2.57512,2.58749 -2.68481,2.25249 z"
       style="fill:#1a1a1a;stroke-width:0.32266259" />
    <path
       inkscape:connector-curvature="0"
       id="path736"
       d="m 128.26292,235.0303 v -4.19702 l 2.50063,-2.53349 c 1.81222,-1.83602 3.72355,-3.29598 6.94278,-5.30318 l 4.44213,-2.7697 9.24869,-1.80618 c 5.08677,-0.99339 9.30405,-1.7508 9.37173,-1.68312 0.10931,0.10931 -6.99862,3.96829 -20.72878,11.2539 l -4.51727,2.397 -3.62996,4.4194 -3.62995,4.4194 z"
       style="fill:#1a1a1a;stroke-width:0.32266259" />
    <path
       inkscape:connector-curvature="0"
       id="path738"
       d="m 122.96816,245.27761 c -0.0767,-0.24155 -0.22751,-2.03635 -0.3352,-3.98846 l -0.19578,-3.54929 2.44433,-2.8233 c 1.34438,-1.55281 2.50997,-2.8233 2.59021,-2.8233 0.0802,0 0.14587,1.79681 0.14587,3.9929 v 3.9929 l -2.25501,2.81886 c -1.33261,1.66583 -2.31203,2.63923 -2.39442,2.37969 z"
       style="fill:#1a1a1a;stroke-width:0.32266259" />
    <path
       inkscape:connector-curvature="0"
       id="path740"
       d="m 113.76884,247.69743 c 0.45782,-0.50766 2.33054,-2.63669 4.16161,-4.73117 1.83107,-2.09449 3.44381,-3.69167 3.58388,-3.54929 0.14007,0.14237 0.34439,1.85604 0.45403,3.80815 0.18043,3.21214 0.13948,3.62413 -0.43106,4.33717 -0.59469,0.74321 -0.85638,0.79554 -4.61565,0.92302 l -3.98521,0.13513 z"
       style="fill:#1a1a1a;stroke-width:0.32266259" />
    <path
       inkscape:connector-curvature="0"
       id="path742"
       d="m 106.23908,255.75449 c -0.42948,-0.75157 -1.8946,-5.65827 -1.7367,-5.81618 0.10072,-0.10071 1.1684,-0.2531 2.37262,-0.33862 1.93174,-0.1372 2.26185,-0.0753 2.80416,0.52625 0.80245,0.89004 1.29536,0.8603 2.07032,-0.1249 0.55514,-0.70575 0.87089,-0.80228 2.52405,-0.77164 1.03925,0.0193 2.74748,0.12816 3.79607,0.242 l 1.90654,0.20697 -2.31165,2.80213 c -1.27141,1.54116 -2.56494,2.87254 -2.87453,2.95858 -1.1115,0.30896 -8.40092,0.57785 -8.55088,0.31541 z"
       style="fill:#1a1a1a;stroke-width:0.32266259" />
    <path
       inkscape:connector-curvature="0"
       id="path744"
       d="m 100.56122,250.01752 -3.570879,-3.41016 2.561291,-1.28779 c 1.408708,-0.70828 2.759078,-1.28779 3.000808,-1.28779 0.24173,0 1.58804,1.08219 2.99179,2.40486 l 2.55227,2.40486 -1.93597,0.02 c -2.82431,0.0293 -2.99938,0.21488 -2.29879,2.4374 0.31625,1.00325 0.50645,1.89264 0.42267,1.97641 -0.0838,0.0838 -1.75921,-1.38225 -3.72319,-3.25783 z"
       style="fill:#1a1a1a;stroke-width:0.32266259" />
    <path
       inkscape:connector-curvature="0"
       id="path746"
       d="m 99.485772,159.81804 1.189488,-2.90276 1.69398,-0.001 c 0.93169,-7.9e-4 1.69398,0.0865 1.69398,0.19357 0,0.10712 -0.38011,1.4139 -0.84468,2.90396 l -0.84469,2.7092 h -2.03878 -2.038791 z"
       style="fill:#1a1a1a;stroke-width:0.32266259" />
    <path
       inkscape:connector-curvature="0"
       id="path748"
       d="m 101.15926,155.67723 c 0,-0.61406 2.31917,-8.7326 2.91916,-10.21887 0.3582,-0.88733 0.92406,-1.97027 1.25746,-2.40655 l 0.6062,-0.79322 0.53545,1.84188 c 0.43906,1.51033 0.66201,1.84267 1.23854,1.84629 2.46716,0.0154 2.9273,1.48248 1.0996,3.50577 -0.58051,0.64264 -1.77839,2.36255 -2.66196,3.82203 l -1.60649,2.6536 -1.69398,0.008 c -0.93169,0.005 -1.69398,-0.11208 -1.69398,-0.2593 z"
       style="fill:#1a1a1a;stroke-width:0.32266259" />
    <path
       inkscape:connector-curvature="0"
       id="path750"
       d="m 81.799503,206.91772 v -4.25766 l 3.7441,-9.07976 c 5.340932,-12.95222 11.355687,-27.20781 12.072017,-28.61193 0.707673,-1.38715 1.124863,-1.60224 3.10778,-1.60224 1.22714,0 1.42184,0.0859 1.27977,0.56466 -0.0922,0.31056 -2.85793,9.6559 -6.146146,20.76741 -3.288212,11.11151 -6.162854,20.74603 -6.388092,21.41005 -0.370027,1.09087 -0.759576,1.39341 -4.039475,3.13722 l -3.629954,1.92992 z"
       style="fill:#1a1a1a;stroke-width:0.32266259" />
    <path
       inkscape:connector-curvature="0"
       id="path752"
       d="m 93.604661,162.63169 c -0.252907,-0.39465 -0.79457,-1.41481 -1.203698,-2.26702 -0.610132,-1.27091 -0.664189,-1.59872 -0.300683,-1.82338 0.630134,-0.38945 7.130759,-1.72821 7.346084,-1.51289 0.0984,0.0984 -0.309041,1.42534 -0.905425,2.94876 -0.795456,2.03193 -1.257316,2.80367 -1.733642,2.89682 -2.539902,0.4967 -2.738708,0.48166 -3.202636,-0.24229 z"
       style="fill:#1a1a1a;stroke-width:0.32266259" />
    <path
       inkscape:connector-curvature="0"
       id="path754"
       d="m 94.367531,163.12358 c -0.614039,-0.12587 -2.242825,-2.5742 -2.242825,-3.37132 0,-0.31941 -0.177506,-0.58074 -0.394457,-0.58074 -0.909259,0 1.026115,-0.8883 2.814426,-1.29176 4.584698,-1.03436 4.678609,-1.03664 4.678609,-0.11352 0,0.42279 -0.126109,1.02083 -0.280239,1.32899 -0.154133,0.30815 -0.643382,1.28627 -1.087223,2.17359 -0.681564,1.36258 -0.976503,1.64004 -1.897732,1.78527 -0.599914,0.0946 -1.315664,0.12585 -1.590559,0.0695 z"
       style="fill:#1a1a1a;stroke-width:0.32266259" />
    <path
       inkscape:connector-curvature="0"
       id="path756"
       d="m 98.947702,161.02682 c 1.834588,-4.55021 1.497918,-4.11394 3.174708,-4.11394 0.83083,0 1.58768,0.0771 1.6819,0.1713 0.14253,0.14253 -0.51147,2.80323 -1.24668,5.07197 -0.14891,0.45951 -0.56566,0.56465 -2.23795,0.56465 h -2.054968 z"
       style="fill:#1a1a1a;stroke-width:0.32266259" />
    <path
       inkscape:connector-curvature="0"
       id="path758"
       d="m 130.51573,185.19772 c -0.0919,-0.0941 -0.52754,-0.22788 -0.96799,-0.29732 -2.29622,-0.36197 -5.79517,-3.37005 -9.51272,-8.17819 -0.35493,-0.45904 -0.94042,-1.1707 -1.3011,-1.58145 -0.36068,-0.41075 -1.01408,-1.21829 -1.45199,-1.79454 -0.43791,-0.57625 -0.94247,-1.20624 -1.12124,-1.39996 -0.17877,-0.19373 -1.32392,-1.58642 -2.54476,-3.09486 -3.66389,-4.52703 -4.64629,-5.21079 -8.57311,-5.96703 -1.18027,-0.2273 -1.66084,-0.7842 -1.28413,-1.4881 0.17998,-0.33629 0.24442,-0.61144 0.1432,-0.61144 -0.10122,0 -0.0393,-0.2704 0.13755,-0.60089 0.17687,-0.33048 0.40609,-1.08055 0.50937,-1.66682 0.27564,-1.56456 0.41766,-1.6718 1.88683,-1.42473 2.13274,0.35867 4.84609,1.73142 6.66062,3.36978 0.49136,0.44366 2.10115,1.89564 3.57729,3.22662 1.47615,1.33099 4.79654,4.38293 7.37863,6.7821 5.40918,5.02597 7.03729,6.44707 7.38622,6.44707 0.13698,0 0.94381,-2.21427 1.79294,-4.92061 0.84913,-2.70633 1.80159,-5.71919 2.11659,-6.69524 1.22447,-3.79422 1.71789,-5.45717 1.64677,-5.54997 -0.0407,-0.0531 0.22506,-0.85553 0.59067,-1.78308 0.36561,-0.92755 0.73623,-2.08073 0.82362,-2.56263 0.19461,-1.0732 1.84496,-5.64716 1.98651,-5.50562 0.0561,0.0561 0.1799,2.27385 0.27513,4.92834 0.0952,2.6545 0.26684,6.42354 0.38137,8.37565 0.24754,4.21918 0.21346,5.07466 -0.2699,6.77591 -0.20169,0.70986 -0.40636,1.43585 -0.45482,1.61332 -0.31863,1.16672 -0.48845,1.81226 -0.89126,3.38795 -0.24951,0.97606 -0.61137,2.17394 -0.80413,2.66197 -0.19275,0.48803 -0.26368,0.88732 -0.15761,0.88732 0.10607,0 0.0121,0.2178 -0.20882,0.484 -0.22093,0.26619 -0.29352,0.48399 -0.16133,0.48399 0.13219,0 0.0596,0.2178 -0.16134,0.48399 -0.22092,0.2662 -0.30141,0.484 -0.17886,0.484 0.12255,0 -0.0775,0.42171 -0.44449,0.93713 -0.36701,0.51542 -0.6673,1.02361 -0.6673,1.12932 0,0.35371 -1.24589,1.44312 -2.23591,1.95508 -1.02847,0.53184 -3.61431,1.00184 -3.9005,0.70894 z"
       style="fill:#1a1a1a;stroke-width:0.32266259" />
    <path
       inkscape:connector-curvature="0"
       id="path760"
       d="m 108.9597,138.51179 c -4.30234,-1.12702 -7.99241,-3.37048 -11.145426,-6.77611 -6.463776,-6.98165 -7.822268,-17.55995 -3.370215,-26.24319 1.958822,-3.82047 6.218151,-8.024222 9.965211,-9.835176 3.52095,-1.701678 6.15704,-2.29943 10.14049,-2.29943 4.0206,0 6.64849,0.601242 10.16387,2.325415 2.21433,1.086054 3.30713,1.907484 5.67315,4.264382 2.37983,2.370649 3.18384,3.434599 4.27854,5.661849 2.03803,4.14648 2.76101,7.45519 2.53815,11.61585 -0.3355,6.26382 -2.38758,10.86295 -6.84325,15.33705 -2.98892,3.00129 -6.36614,4.94612 -10.36496,5.96885 -3.25273,0.83191 -7.81616,0.82385 -11.03556,-0.0195 z"
       style="fill:#1a1a1a;stroke-width:0.32266259" />
    <path
       inkscape:connector-curvature="0"
       id="path762"
       d="m 134.12853,103.88674 c -0.72471,-1.12061 -2.26719,-3.06305 -3.42772,-4.316537 l -2.11007,-2.279068 0.74084,-0.485413 c 1.49732,-0.981085 9.2626,-4.746339 13.15505,-6.378667 9.69391,-4.065209 15.00236,-5.616501 22.64674,-6.618076 3.30156,-0.432573 32.44218,-1.541846 32.7785,-1.247754 0.19559,0.171027 -2.62909,3.32376 -3.8907,4.342559 -1.44192,1.164405 -1.45758,1.166225 -12.35759,1.435221 -12.39615,0.305917 -17.06557,0.907841 -23.81535,3.069993 -7.50373,2.403657 -12.55672,5.504074 -19.85054,12.179892 l -2.5515,2.33532 z"
       style="fill:#1a1a1a;stroke-width:0.32266259" />
    <path
       inkscape:connector-curvature="0"
       id="path764"
       d="m 136.99744,110.85279 c -0.1787,-0.66549 -0.40715,-1.72991 -0.50766,-2.36537 l -0.18275,-1.1554 5.15282,-2.46405 c 5.77335,-2.76079 6.88155,-3.16793 13.74539,-5.049895 7.6687,-2.102638 9.19863,-2.286151 19.02916,-2.282507 4.7959,0.0019 9.80881,0.08256 11.1398,0.179511 3.12854,0.227902 8.1438,1.066708 8.49848,1.421379 0.37531,0.375317 -3.53463,4.777512 -4.97938,5.606272 l -1.15951,0.66514 -3.5191,-0.84802 c -7.00177,-1.68725 -9.28511,-1.9699 -16.10294,-1.99339 -4.25896,-0.0147 -7.22126,0.12887 -8.71189,0.42215 -5.42845,1.06803 -13.96571,4.47423 -19.83313,7.91304 -1.08964,0.63862 -2.04039,1.16113 -2.11278,1.16113 -0.0724,0 -0.27781,-0.5445 -0.45651,-1.20999 z"
       style="fill:#1a1a1a;stroke-width:0.32266259" />
    <path
       inkscape:connector-curvature="0"
       id="path766"
       d="m 137.81052,117.99141 c -0.24375,-0.6352 -0.24488,-2.67152 -0.002,-3.88509 0.16935,-0.84674 0.45239,-1.03078 2.8233,-1.83576 1.4493,-0.49208 2.78028,-0.90633 2.95774,-0.92055 0.17747,-0.0142 1.33906,-0.37913 2.58131,-0.81088 1.24225,-0.43176 2.47643,-0.83525 2.74263,-0.89664 0.26619,-0.0614 0.52029,-0.1409 0.56466,-0.17666 0.0968,-0.078 0.20209,-0.10254 1.85285,-0.43153 0.70851,-0.1412 1.4345,-0.34837 1.61331,-0.46037 0.32863,-0.20582 0.63757,-0.28548 2.09977,-0.54144 0.44366,-0.0777 1.96824,-0.35064 3.38796,-0.60662 2.35901,-0.42533 6.80567,-0.47472 8.38922,-0.0932 1.55461,0.37457 5.40616,2.1321 5.59282,2.55209 0.0592,0.1331 0.31325,0.242 0.56466,0.242 0.25141,0 0.45711,0.1452 0.45711,0.32266 0,0.17747 0.15153,0.32267 0.33674,0.32267 0.18521,0 0.72822,0.36299 1.20669,0.80665 0.47847,0.44366 1.018,0.80666 1.19895,0.80666 0.18095,0 0.50263,0.27801 0.71484,0.61781 0.37583,0.60179 0.0904,1.18998 -0.63054,1.29955 -0.13123,0.0199 -0.42163,0.10333 -0.64532,0.18528 -3.8513,1.41104 -3.92013,1.41961 -5.43536,0.67727 -0.78354,-0.38387 -2.3684,-1.22648 -3.52192,-1.87247 -4.05258,-2.2695 -6.59099,-2.63147 -10.83825,-1.54553 -2.00692,0.51313 -10.436,3.68851 -14.49076,5.45891 -2.5615,1.11841 -3.32685,1.28911 -3.52023,0.78515 z"
       style="fill:#1a1a1a;stroke-width:0.32266259" />
    <path
       inkscape:connector-curvature="0"
       id="path768"
       d="m 116.32892,255.45014 c 0.0103,-0.65013 5.04898,-6.07756 5.80682,-6.25478 0.59263,-0.13858 0.8318,-0.43563 0.91215,-1.1329 0.12017,-1.04295 0.72018,-1.99825 2.96973,-4.72828 l 1.50538,-1.82692 0.20863,3.40976 c 0.27568,4.5058 0.25705,9.19133 -0.0383,9.63356 -0.13038,0.19519 -1.68904,0.45067 -3.46369,0.56769 -1.77464,0.11703 -4.27931,0.30404 -5.56592,0.41556 -1.30077,0.11279 -2.3373,0.0756 -2.33479,-0.0837 z"
       style="fill:#1a1a1a;stroke-width:0.32266259" />
    <path
       inkscape:connector-curvature="0"
       id="path770"
       d="m 116.32892,255.45014 c 0.0103,-0.65013 5.04898,-6.07756 5.80682,-6.25478 0.5891,-0.13775 0.83192,-0.43611 0.91081,-1.1191 0.11475,-0.99341 0.65062,-1.86263 2.95773,-4.7976 l 1.45198,-1.84714 0.19982,2.34878 c 0.28997,3.40839 0.31398,10.35551 0.0372,10.77274 -0.13038,0.19659 -1.68904,0.45501 -3.46369,0.57431 -1.77464,0.1193 -4.27931,0.3052 -5.56592,0.41309 -1.29588,0.10869 -2.33729,0.0684 -2.33479,-0.0903 z"
       style="fill:#1a1a1a;stroke-width:0.32266259" />
  </g>
</svg>
